<?xml version="1.0" encoding="utf-8"?>
<!-- Generator: Adobe Illustrator 21.0.0, SVG Export Plug-In . SVG Version: 6.00 Build 0)  -->
<svg version="1.2" baseProfile="tiny" id="Слой_1"
	 xmlns="http://www.w3.org/2000/svg" xmlns:xlink="http://www.w3.org/1999/xlink" x="0px" y="0px" viewBox="0 0 20 15"
	 overflow="scroll" xml:space="preserve">
<path fill="#CFCFCF" d="M18.8,1.3v2l0,0l-8.7,6l-8.8-6v-2H18.8z M13.9,8l4.8-3.3v8.1L13.9,8z M1.3,12.9v-8l4.8,3.3L1.3,12.9z
	 M7.1,8.8l2.9,2l2.9-2l5,5H2.1L7.1,8.8z M18.8,0H1.3C0.9,0,0.6,0.1,0.4,0.4C0.1,0.6,0,0.9,0,1.3v12.5c0,0.3,0.1,0.6,0.4,0.9
	S0.9,15,1.3,15h17.5c0.3,0,0.6-0.1,0.9-0.4c0.2-0.2,0.4-0.5,0.4-0.9V1.3c0-0.3-0.1-0.6-0.4-0.9C19.4,0.1,19.1,0,18.8,0z"/>
</svg>
