<svg version="1.2" baseProfile="tiny" id="Слой_1" xmlns="http://www.w3.org/2000/svg" viewBox="0 0 14 14" overflow="scroll"><path fill="#46B4DF" d="M14,11.1c0,0.2,0,0.4-0.1,0.7c-0.1,0.3-0.1,0.5-0.2,0.7c-0.1,0.3-0.5,0.7-1.2,1.1c-0.6,0.3-1.2,0.5-1.8,0.5	c-0.2,0-0.4,0-0.5,0c-0.2,0-0.4-0.1-0.6-0.1c-0.2-0.1-0.4-0.1-0.5-0.1c-0.1,0-0.3-0.1-0.6-0.2c-0.3-0.1-0.4-0.2-0.5-0.2	c-0.6-0.2-1.2-0.5-1.7-0.8c-0.8-0.5-1.7-1.2-2.6-2.1C2.7,9.4,2,8.6,1.5,7.7C1.2,7.2,0.9,6.6,0.7,6c0-0.1-0.1-0.2-0.2-0.5	C0.4,5.2,0.3,5,0.3,4.9c0-0.1-0.1-0.3-0.1-0.5S0.1,4.1,0,3.9c0-0.2,0-0.3,0-0.5c0-0.6,0.2-1.2,0.5-1.8c0.4-0.7,0.7-1.1,1.1-1.2	C1.7,0.2,2,0.2,2.2,0.1C2.5,0,2.8,0,2.9,0C3,0,3.1,0,3.2,0c0.1,0,0.3,0.3,0.5,0.8C3.8,0.9,3.9,1.1,4,1.3C4.1,1.6,4.2,1.8,4.3,2	c0.1,0.2,0.2,0.4,0.3,0.5c0,0,0.1,0.1,0.2,0.2C4.9,2.9,5,3,5,3.1c0,0.1,0.1,0.2,0.1,0.3c0,0.1-0.1,0.3-0.3,0.5	C4.6,4.1,4.4,4.2,4.2,4.4C4,4.6,3.8,4.8,3.6,4.9C3.4,5.1,3.3,5.3,3.3,5.4c0,0.1,0,0.1,0,0.2c0,0.1,0.1,0.2,0.1,0.2	c0,0,0.1,0.1,0.1,0.2c0.1,0.1,0.1,0.2,0.1,0.2c0.5,0.9,1.1,1.7,1.7,2.3c0.6,0.6,1.4,1.2,2.3,1.7c0,0,0.1,0,0.2,0.1	c0.1,0.1,0.2,0.1,0.2,0.1c0,0,0.1,0.1,0.2,0.1c0.1,0,0.2,0,0.2,0c0.1,0,0.3-0.1,0.5-0.3c0.2-0.2,0.4-0.4,0.5-0.6	c0.2-0.2,0.3-0.4,0.5-0.6c0.2-0.2,0.4-0.3,0.5-0.3c0.1,0,0.2,0,0.3,0.1c0.1,0,0.2,0.1,0.4,0.2c0.1,0.1,0.2,0.2,0.2,0.2	c0.2,0.1,0.3,0.2,0.5,0.3c0.2,0.1,0.4,0.2,0.6,0.3s0.4,0.2,0.5,0.3c0.5,0.2,0.7,0.4,0.8,0.5C14,10.9,14,11,14,11.1z"/></svg>